# xmcd
#
# Track frame offsets:
#	150
#	11204
#	25525
#	37230
#	51718
#	63558
#	75640
#	90645
#	105105
#	115505
#
# Disc length: 1734 seconds
#
# Revision: 1
# Processed by: cddbd v1.5.2PL0 Copyright (c) Steve Scherf et al.
# Submitted via: audiograbber 1.83.01
#
DISCID=7806c40a
DTITLE=James Windrow - Walking and Talking With My Lord
DYEAR=1900
DGENRE=Gospel
TTITLE0=Walking and Talking With My Lord
TTITLE1=Help Me Make It To The End Serving You
TTITLE2=Praise The Lord
TTITLE3=Heading Home To Jesus One Sweet Day
TTITLE4=The Great I Am
TTITLE5=He's The Rock I Lean On
TTITLE6=Jesus is Coming Back
TTITLE7=Thank You LordTrack  8
TTITLE8=Oh Sinner
TTITLE9=New Born King
EXTD=
EXTT0=
EXTT1=
EXTT2=
EXTT3=
EXTT4=
EXTT5=
EXTT6=
EXTT7=
EXTT8=
EXTT9=
PLAYORDER=
